<svg xmlns="http://www.w3.org/2000/svg" viewBox="0 0 394.55 46.86"><defs><style>.cls-1{fill:#fff;}</style></defs><g id="Layer_2" data-name="Layer 2"><g id="Layer_1-2" data-name="Layer 1"><path class="cls-1" d="M0,1H14.12V16.63H28.25V1H42.37V45.9H28.25V30.24H14.12V45.9H0Z"/><path class="cls-1" d="M52.64,1H66.77V45.9H52.64Z"/><path class="cls-1" d="M96.23,46.86a20.93,20.93,0,0,1-11.07-3,21.24,21.24,0,0,1-7.83-8.38,25,25,0,0,1-2.86-12,24.32,24.32,0,0,1,3-12A21.79,21.79,0,0,1,85.7,3.05,23.18,23.18,0,0,1,97.52,0a23.64,23.64,0,0,1,10.3,2.25,21.85,21.85,0,0,1,7.83,6.16,19.69,19.69,0,0,1,4,8.92H104.83a7.17,7.17,0,0,0-2.76-3A7.7,7.7,0,0,0,98,13.22a8.41,8.41,0,0,0-4.75,1.38A9.39,9.39,0,0,0,90,18.39a12.57,12.57,0,0,0-1.15,5.49,12.75,12.75,0,0,0,1.22,5.71,9.43,9.43,0,0,0,3.43,3.92,9.09,9.09,0,0,0,5,1.41,9.38,9.38,0,0,0,2.6-.35,10.31,10.31,0,0,0,2.31-1,9.42,9.42,0,0,0,2-1.51H97.64V21.51h22.28V45.9H108.17V43a16.15,16.15,0,0,1-5.29,2.92A21.06,21.06,0,0,1,96.23,46.86Z"/><path class="cls-1" d="M129.23,1h14.12V16.63h14.13V1H171.6V45.9H157.48V30.24H143.35V45.9H129.23Z"/><path class="cls-1" d="M181.87,1H196V32.29h21.19V45.9H181.87Z"/><path class="cls-1" d="M224.24,1h14.12V45.9H224.24Z"/><path class="cls-1" d="M267.83,46.86a21,21,0,0,1-11.08-3,21.39,21.39,0,0,1-7.83-8.38,25.07,25.07,0,0,1-2.85-12,24.32,24.32,0,0,1,3-12,21.79,21.79,0,0,1,8.25-8.41,23.17,23.17,0,0,1,11.81-3,23.65,23.65,0,0,1,10.31,2.25,21.94,21.94,0,0,1,7.83,6.16,19.79,19.79,0,0,1,4,8.92H276.43a7.17,7.17,0,0,0-2.76-3,7.75,7.75,0,0,0-4.11-1.1,8.39,8.39,0,0,0-4.75,1.38,9.39,9.39,0,0,0-3.21,3.79,12.57,12.57,0,0,0-1.15,5.49,12.75,12.75,0,0,0,1.22,5.71,9.36,9.36,0,0,0,3.43,3.92,9.09,9.09,0,0,0,5,1.41,9.43,9.43,0,0,0,2.6-.35,10.31,10.31,0,0,0,2.31-1,9.68,9.68,0,0,0,2-1.51h-7.71V21.51h22.28V45.9H279.77V43a16.2,16.2,0,0,1-5.3,2.92A21,21,0,0,1,267.83,46.86Z"/><path class="cls-1" d="M300.83,1H315V16.63h14.12V1H343.2V45.9H329.07V30.24H315V45.9H300.83Z"/><path class="cls-1" d="M365.34,14.57H350.26V1h44.29V14.57H379.47V45.9H365.34Z"/></g></g></svg>