<svg xmlns="http://www.w3.org/2000/svg" viewBox="0 0 161.26 44.94"><defs><style>.cls-1{fill:#fff;}</style></defs><g id="Layer_2" data-name="Layer 2"><g id="Layer_1-2" data-name="Layer 1"><path class="cls-1" d="M0,0H23.62l6.1,27.35L35.82,0H59.19V44.94H45.45V11.11L37.62,44.94h-16L13.74,11.11V44.94H0Z"/><path class="cls-1" d="M81.53,0H99.76l15.92,44.94H100.79l-2.18-7.13H82.36l-2.11,7.13H65.61ZM95.2,26.58,90.84,12.2h-.71L85.77,26.58Z"/><path class="cls-1" d="M122.1,0h20.74q8.59,0,13.51,4.11t4.91,11.3q0,7.18-4.91,11.3t-13.51,4.11H136V44.94H122.1ZM143,19.9a4.23,4.23,0,0,0,3-1.09,3.6,3.6,0,0,0,1.19-2.76A3.6,3.6,0,0,0,146,13.29a4.23,4.23,0,0,0-3-1.09h-7v7.7Z"/></g></g></svg>